<svg width="200" height="200" viewBox="0 0 200 200" fill="none" xmlns="http://www.w3.org/2000/svg">
  <defs>
    <linearGradient id="blockGrad" x1="0%" y1="0%" x2="100%" y2="100%">
      <stop offset="0%" style="stop-color:#FF4B2B" />
      <stop offset="100%" style="stop-color:#FF416C" />
    </linearGradient>
    <filter id="shadow" x="-20%" y="-20%" width="140%" height="140%">
      <feGaussianBlur in="SourceAlpha" stdDeviation="3" />
      <feOffset dx="2" dy="4" result="offsetblur" />
      <feComponentTransfer>
        <feFuncA type="linear" slope="0.2" />
      </feComponentTransfer>
      <feMerge>
        <feMergeNode />
        <feMergeNode in="SourceGraphic" />
      </feMerge>
    </filter>
  </defs>

  <g filter="url(#shadow)" transform="translate(40, 40)">
    <path d="M60 80 L90 65 L90 95 L60 110 Z" fill="#D32F2F" />
    <path d="M90 65 L120 80 L120 110 L90 95 Z" fill="#B71C1C" />
    <path d="M60 80 L90 65 L120 80 L90 95 Z" fill="url(#blockGrad)" />
    <circle cx="90" cy="80" r="4" fill="white" fill-opacity="0.3" />

    <path d="M30 65 L60 50 L60 80 L30 95 Z" fill="#D32F2F" />
    <path d="M60 50 L90 65 L90 95 L60 80 Z" fill="#B71C1C" />
    <path d="M30 65 L60 50 L90 65 L60 80 Z" fill="url(#blockGrad)" />
    <circle cx="60" cy="65" r="4" fill="white" fill-opacity="0.3" />

    <path d="M30 35 L60 20 L60 50 L30 65 Z" fill="#D32F2F" />
    <path d="M60 20 L90 35 L90 65 L60 50 Z" fill="#B71C1C" />
    <path d="M30 35 L60 20 L90 35 L60 50 Z" fill="url(#blockGrad)" />
    <circle cx="60" cy="35" r="4" fill="white" fill-opacity="0.3" />
  </g>
  
  <text x="100" y="180" font-family="Arial, sans-serif" font-weight="900" font-size="24" fill="#333" text-anchor="middle" letter-spacing="1">LegoDOM</text>
</svg>